<svg width="30" height="30" viewBox="0 0 30 30" fill="none" xmlns="http://www.w3.org/2000/svg">
<path d="M24.5419 8.42095C24.4096 8.28757 24.2522 8.18169 24.0788 8.10945C23.9053 8.0372 23.7193 8 23.5315 8C23.3436 8 23.1576 8.0372 22.9842 8.10945C22.8108 8.18169 22.6534 8.28757 22.5211 8.42095L11.919 19.0373L7.46469 14.5687C7.32733 14.436 7.16518 14.3317 6.9875 14.2617C6.80982 14.1917 6.62009 14.1573 6.42914 14.1606C6.23819 14.1639 6.04975 14.2048 5.8746 14.2809C5.69945 14.3571 5.54101 14.4669 5.40832 14.6043C5.27563 14.7417 5.1713 14.9038 5.10128 15.0815C5.03125 15.2592 4.99691 15.4489 5.00022 15.6399C5.00352 15.8308 5.0444 16.0192 5.12053 16.1944C5.19666 16.3696 5.30654 16.528 5.4439 16.6607L10.9086 22.1254C11.0409 22.2588 11.1983 22.3646 11.3717 22.4369C11.5451 22.5091 11.7311 22.5463 11.919 22.5463C12.1069 22.5463 12.2929 22.5091 12.4663 22.4369C12.6397 22.3646 12.7971 22.2588 12.9294 22.1254L24.5419 10.5129C24.6863 10.3796 24.8016 10.2179 24.8804 10.0379C24.9593 9.85786 25 9.66346 25 9.46693C25 9.27039 24.9593 9.07599 24.8804 8.89597C24.8016 8.71595 24.6863 8.55421 24.5419 8.42095Z" fill="white"/>
</svg>
