<svg width="30" height="30" viewBox="0 0 30 30" fill="none" xmlns="http://www.w3.org/2000/svg">
<path d="M24.3 16.2502C24.025 16.2502 23.7375 16.1627 23.4625 16.1002C22.9056 15.9775 22.3583 15.8146 21.825 15.6127C21.2451 15.4017 20.6077 15.4127 20.0354 15.6435C19.4631 15.8742 18.9964 16.3085 18.725 16.8627L18.45 17.4252C17.2325 16.7479 16.1137 15.9067 15.125 14.9252C14.1435 13.9365 13.3023 12.8177 12.625 11.6002L13.15 11.2502C13.7042 10.9788 14.1385 10.5121 14.3692 9.93982C14.6 9.36752 14.611 8.73009 14.4 8.1502C14.2015 7.61573 14.0387 7.0687 13.9125 6.5127C13.85 6.2377 13.8 5.9502 13.7625 5.6627C13.6107 4.78223 13.1495 3.98488 12.462 3.41425C11.7745 2.84362 10.9059 2.53721 10.0125 2.5502H6.2625C5.72379 2.54514 5.19032 2.65622 4.69839 2.87586C4.20647 3.09551 3.76764 3.41857 3.41179 3.82305C3.05594 4.22754 2.79142 4.70394 2.63624 5.21984C2.48106 5.73574 2.43885 6.27902 2.5125 6.8127C3.17843 12.0494 5.57004 16.915 9.30957 20.641C13.0491 24.3669 17.9234 26.7408 23.1625 27.3877H23.6375C24.5593 27.3891 25.4493 27.0509 26.1375 26.4377C26.533 26.084 26.8489 25.6504 27.0643 25.1656C27.2798 24.6808 27.39 24.1557 27.3875 23.6252V19.8752C27.3722 19.0069 27.056 18.1709 26.4929 17.5098C25.9298 16.8487 25.1548 16.4035 24.3 16.2502ZM24.925 23.7502C24.9248 23.9277 24.8868 24.1031 24.8135 24.2647C24.7402 24.4264 24.6333 24.5706 24.5 24.6877C24.3607 24.809 24.1975 24.8995 24.0208 24.9533C23.8442 25.0072 23.6582 25.0231 23.475 25.0002C18.7936 24.4 14.4453 22.2583 11.1159 18.9131C7.7865 15.5678 5.66552 11.2094 5.0875 6.5252C5.06761 6.3421 5.08504 6.15686 5.13876 5.98069C5.19247 5.80452 5.28134 5.64106 5.4 5.5002C5.51714 5.36687 5.66133 5.26 5.82298 5.18672C5.98462 5.11344 6.16002 5.07543 6.3375 5.0752H10.0875C10.3782 5.06873 10.662 5.1638 10.8902 5.34404C11.1183 5.52428 11.2765 5.77841 11.3375 6.0627C11.3875 6.40437 11.45 6.74187 11.525 7.0752C11.6694 7.73413 11.8616 8.38168 12.1 9.0127L10.35 9.8252C10.2004 9.89385 10.0658 9.99138 9.95395 10.1122C9.84212 10.233 9.75525 10.3747 9.69834 10.5292C9.64143 10.6837 9.61559 10.8479 9.62231 11.0124C9.62903 11.1768 9.66818 11.3384 9.7375 11.4877C11.5365 15.3411 14.6341 18.4387 18.4875 20.2377C18.7918 20.3627 19.1332 20.3627 19.4375 20.2377C19.5934 20.1819 19.7367 20.0958 19.859 19.9842C19.9813 19.8726 20.0802 19.7378 20.15 19.5877L20.925 17.8377C21.5712 18.0688 22.2307 18.2608 22.9 18.4127C23.2333 18.4877 23.5708 18.5502 23.9125 18.6002C24.1968 18.6612 24.4509 18.8194 24.6312 19.0475C24.8114 19.2757 24.9065 19.5595 24.9 19.8502L24.925 23.7502Z" fill="white"/>
</svg>
