<svg width="30" height="30" viewBox="0 0 30 30" fill="none" xmlns="http://www.w3.org/2000/svg">
<path fill-rule="evenodd" clip-rule="evenodd" d="M10.3125 16.25C10.3125 13.6612 12.4112 11.5625 15 11.5625C17.5889 11.5625 19.6875 13.6612 19.6875 16.25C19.6875 18.8388 17.5889 20.9375 15 20.9375C12.4112 20.9375 10.3125 18.8388 10.3125 16.25ZM15 13.4375C13.4467 13.4375 12.1875 14.6967 12.1875 16.25C12.1875 17.8033 13.4467 19.0625 15 19.0625C16.5533 19.0625 17.8125 17.8033 17.8125 16.25C17.8125 14.6967 16.5533 13.4375 15 13.4375Z" fill="white"/>
<path fill-rule="evenodd" clip-rule="evenodd" d="M13.2702 7.1875C11.9637 7.1875 10.9046 8.2466 10.9046 9.55306C10.9046 10.3855 10.2656 11.0785 9.4359 11.1459L6.6489 11.3723C6.10169 11.4167 5.65165 11.8214 5.54951 12.3608C4.98859 15.3233 4.94676 18.3608 5.4259 21.3376L5.54747 22.0928C5.66227 22.8061 6.24931 23.3487 6.96938 23.4072L9.39729 23.6044C13.1263 23.9072 16.8738 23.9072 20.6028 23.6044L23.0307 23.4072C23.7508 23.3487 24.3378 22.8061 24.4526 22.0928L24.5742 21.3376C25.0533 18.3608 25.0115 15.3233 24.4506 12.3608C24.3484 11.8214 23.8984 11.4167 23.3512 11.3723L20.5642 11.1459C19.7345 11.0785 19.0954 10.3855 19.0954 9.55306C19.0954 8.2466 18.0363 7.1875 16.7299 7.1875H13.2702ZM9.03724 9.29713C9.16957 7.0743 11.0141 5.3125 13.2702 5.3125H16.7299C18.9859 5.3125 20.8305 7.0743 20.9628 9.29713L23.503 9.50342C24.8916 9.6162 26.0336 10.6431 26.2928 12.012C26.8942 15.1879 26.939 18.4442 26.4254 21.6355L26.3038 22.3908C26.0518 23.9565 24.7631 25.1477 23.1825 25.2761L20.7546 25.4732C16.9245 25.7843 13.0756 25.7843 9.24552 25.4732L6.81761 25.2761C5.23695 25.1477 3.94831 23.9565 3.69629 22.3908L3.57473 21.6355C3.06106 18.4442 3.1059 15.1879 3.70725 12.012C3.96644 10.6431 5.10848 9.6162 6.49712 9.50342L9.03724 9.29713Z" fill="white"/>
</svg>
