<svg width="30" height="30" viewBox="0 0 30 30" fill="none" xmlns="http://www.w3.org/2000/svg">
<path d="M14.1125 15.0001L18.5375 10.5751C18.7703 10.3409 18.901 10.0241 18.901 9.69387C18.901 9.36364 18.7703 9.04682 18.5375 8.81262C18.4213 8.69546 18.2831 8.60247 18.1307 8.539C17.9784 8.47554 17.815 8.44287 17.65 8.44287C17.485 8.44287 17.3216 8.47554 17.1693 8.539C17.017 8.60247 16.8787 8.69546 16.7625 8.81262L11.4625 14.1126C11.3454 14.2288 11.2524 14.3671 11.1889 14.5194C11.1254 14.6717 11.0928 14.8351 11.0928 15.0001C11.0928 15.1651 11.1254 15.3285 11.1889 15.4808C11.2524 15.6332 11.3454 15.7714 11.4625 15.8876L16.7625 21.2501C16.8793 21.366 17.0178 21.4576 17.1701 21.5198C17.3224 21.582 17.4855 21.6136 17.65 21.6126C17.8145 21.6136 17.9776 21.582 18.1299 21.5198C18.2822 21.4576 18.4207 21.366 18.5375 21.2501C18.7703 21.0159 18.901 20.6991 18.901 20.3689C18.901 20.0386 18.7703 19.7218 18.5375 19.4876L14.1125 15.0001Z" fill="white"/>
</svg>
