<svg width="30" height="30" viewBox="0 0 30 30" fill="none" xmlns="http://www.w3.org/2000/svg">
<path d="M14.0625 23.75C14.0625 23.2322 14.4822 22.8125 15 22.8125H22.5C22.6726 22.8125 22.8125 22.6726 22.8125 22.5L22.8125 7.5C22.8125 7.32741 22.6726 7.1875 22.5 7.1875L15 7.1875C14.4822 7.1875 14.0625 6.76777 14.0625 6.25C14.0625 5.73223 14.4822 5.3125 15 5.3125H22.5C23.7081 5.3125 24.6875 6.29188 24.6875 7.5V22.5C24.6875 23.7081 23.7081 24.6875 22.5 24.6875H15C14.4822 24.6875 14.0625 24.2678 14.0625 23.75Z" fill="#C32270"/>
<path d="M4.375 16.394C4.375 17.0844 4.93464 17.644 5.625 17.644H11.695C11.7236 18.0883 11.7595 18.5322 11.8026 18.9756L11.8397 19.3571C11.9 19.9774 12.5587 20.3489 13.1207 20.0796C15.4056 18.9846 17.4741 17.4861 19.2267 15.6563L19.2641 15.6172C19.598 15.2686 19.598 14.7188 19.2641 14.3702L19.2267 14.3311C17.4741 12.5013 15.4056 11.0028 13.1207 9.90781C12.5587 9.63846 11.9 10.0099 11.8397 10.6303L11.8026 11.0118C11.7595 11.4552 11.7236 11.8991 11.695 12.3434L5.625 12.3434C4.93464 12.3434 4.375 12.903 4.375 13.5934V16.394Z" fill="#C32270"/>
</svg>
