<svg width="30" height="30" viewBox="0 0 30 30" fill="none" xmlns="http://www.w3.org/2000/svg">
<path d="M25.575 12.0374C25.3995 10.211 24.754 8.46125 23.7014 6.95842C22.6489 5.45559 21.2251 4.25094 19.5687 3.46176C17.9123 2.67259 16.0798 2.3258 14.2496 2.45515C12.4194 2.58451 10.6539 3.1856 9.12497 4.1999C7.81147 5.0782 6.70879 6.23652 5.89615 7.59164C5.08352 8.94675 4.58109 10.465 4.42497 12.0374C4.27183 13.5995 4.46832 15.176 5.00019 16.6527C5.53206 18.1294 6.38597 19.4692 7.49997 20.5749L14.125 27.2124C14.2412 27.3296 14.3794 27.4226 14.5318 27.486C14.6841 27.5495 14.8475 27.5821 15.0125 27.5821C15.1775 27.5821 15.3409 27.5495 15.4932 27.486C15.6455 27.4226 15.7838 27.3296 15.9 27.2124L22.5 20.5749C23.614 19.4692 24.4679 18.1294 24.9998 16.6527C25.5316 15.176 25.7281 13.5995 25.575 12.0374ZM20.75 18.8124L15 24.5624L9.24997 18.8124C8.40259 17.965 7.75348 16.9403 7.34931 15.8121C6.94514 14.6839 6.79595 13.4801 6.91247 12.2874C7.02975 11.0763 7.41468 9.90635 8.03944 8.8622C8.6642 7.81805 9.51317 6.92578 10.525 6.2499C11.8512 5.36894 13.4079 4.89902 15 4.89902C16.5921 4.89902 18.1488 5.36894 19.475 6.2499C20.4837 6.92317 21.3308 7.8115 21.9554 8.85107C22.58 9.89064 22.9666 11.0556 23.0875 12.2624C23.2078 13.4592 23.0605 14.6677 22.6562 15.8006C22.2519 16.9334 21.6008 17.9622 20.75 18.8124ZM15 7.4999C13.8875 7.4999 12.7999 7.8298 11.8749 8.44788C10.9499 9.06596 10.2289 9.94447 9.80315 10.9723C9.37741 12.0001 9.26601 13.1311 9.48306 14.2223C9.7001 15.3134 10.2358 16.3157 11.0225 17.1024C11.8092 17.889 12.8114 18.4248 13.9026 18.6418C14.9937 18.8589 16.1247 18.7475 17.1526 18.3217C18.1804 17.896 19.0589 17.175 19.677 16.25C20.2951 15.325 20.625 14.2374 20.625 13.1249C20.6217 11.6341 20.028 10.2052 18.9738 9.15107C17.9196 8.09689 16.4908 7.5032 15 7.4999ZM15 16.2499C14.3819 16.2499 13.7777 16.0666 13.2638 15.7232C12.7499 15.3799 12.3494 14.8918 12.1128 14.3208C11.8763 13.7498 11.8144 13.1214 11.935 12.5152C12.0556 11.909 12.3532 11.3522 12.7903 10.9152C13.2273 10.4782 13.7841 10.1805 14.3903 10.0599C14.9965 9.93936 15.6248 10.0013 16.1959 10.2378C16.7669 10.4743 17.2549 10.8748 17.5983 11.3887C17.9417 11.9026 18.125 12.5068 18.125 13.1249C18.125 13.9537 17.7957 14.7486 17.2097 15.3346C16.6236 15.9207 15.8288 16.2499 15 16.2499Z" fill="white"/>
</svg>
