<svg width="30" height="30" viewBox="0 0 30 30" fill="none" xmlns="http://www.w3.org/2000/svg">
<path d="M14.2999 2.5C11.0954 2.50914 8.01681 3.74864 5.69995 5.9625V3.75C5.69995 3.41848 5.56826 3.10054 5.33384 2.86612C5.09941 2.6317 4.78147 2.5 4.44995 2.5C4.11843 2.5 3.80049 2.6317 3.56607 2.86612C3.33165 3.10054 3.19995 3.41848 3.19995 3.75V9.375C3.19995 9.70652 3.33165 10.0245 3.56607 10.2589C3.80049 10.4933 4.11843 10.625 4.44995 10.625H10.075C10.4065 10.625 10.7244 10.4933 10.9588 10.2589C11.1933 10.0245 11.325 9.70652 11.325 9.375C11.325 9.04348 11.1933 8.72554 10.9588 8.49112C10.7244 8.2567 10.4065 8.125 10.075 8.125H7.07495C8.21459 6.92126 9.63558 6.0197 11.2101 5.50142C12.7846 4.98314 14.4633 4.8644 16.0951 5.15588C17.7269 5.44736 19.2607 6.13991 20.5584 7.17124C21.8562 8.20257 22.8772 9.54032 23.5296 11.0642C24.182 12.588 24.4454 14.2501 24.2961 15.901C24.1467 17.5519 23.5893 19.1398 22.674 20.5218C21.7587 21.9038 20.5142 23.0366 19.0525 23.8183C17.5907 24.6 15.9576 25.0061 14.2999 25C13.9684 25 13.6505 25.1317 13.4161 25.3661C13.1816 25.6005 13.05 25.9185 13.05 26.25C13.05 26.5815 13.1816 26.8995 13.4161 27.1339C13.6505 27.3683 13.9684 27.5 14.2999 27.5C17.6152 27.5 20.7946 26.183 23.1388 23.8388C25.483 21.4946 26.8 18.3152 26.8 15C26.8 11.6848 25.483 8.50537 23.1388 6.16117C20.7946 3.81696 17.6152 2.5 14.2999 2.5ZM14.2999 10C13.9684 10 13.6505 10.1317 13.4161 10.3661C13.1816 10.6005 13.05 10.9185 13.05 11.25V15C13.05 15.3315 13.1816 15.6495 13.4161 15.8839C13.6505 16.1183 13.9684 16.25 14.2999 16.25H16.7999C17.1315 16.25 17.4494 16.1183 17.6838 15.8839C17.9183 15.6495 18.0499 15.3315 18.0499 15C18.0499 14.6685 17.9183 14.3505 17.6838 14.1161C17.4494 13.8817 17.1315 13.75 16.7999 13.75H15.5499V11.25C15.5499 10.9185 15.4183 10.6005 15.1838 10.3661C14.9494 10.1317 14.6315 10 14.2999 10Z" fill="black"/>
</svg>
