<svg width="30" height="30" viewBox="0 0 30 30" fill="none" xmlns="http://www.w3.org/2000/svg">
<path d="M13.75 14.8752V21.2502C13.75 21.5817 13.8817 21.8997 14.1161 22.1341C14.3505 22.3685 14.6685 22.5002 15 22.5002C15.3315 22.5002 15.6495 22.3685 15.8839 22.1341C16.1183 21.8997 16.25 21.5817 16.25 21.2502V14.8752C17.7676 14.5654 19.116 13.7032 20.034 12.4557C20.952 11.2082 21.374 9.66429 21.2183 8.12328C21.0627 6.58228 20.3404 5.15397 19.1914 4.11527C18.0425 3.07656 16.5488 2.50146 15 2.50146C13.4512 2.50146 11.9575 3.07656 10.8086 4.11527C9.65964 5.15397 8.93732 6.58228 8.78165 8.12328C8.62598 9.66429 9.04804 11.2082 9.966 12.4557C10.884 13.7032 12.2324 14.5654 13.75 14.8752ZM15 5.00019C15.7417 5.00019 16.4667 5.22012 17.0834 5.63218C17.7001 6.04423 18.1807 6.6299 18.4645 7.31513C18.7484 8.00035 18.8226 8.75435 18.6779 9.48178C18.5333 10.2092 18.1761 10.8774 17.6517 11.4018C17.1272 11.9263 16.459 12.2834 15.7316 12.4281C15.0042 12.5728 14.2502 12.4986 13.5649 12.2147C12.8797 11.9309 12.294 11.4503 11.882 10.8336C11.4699 10.2169 11.25 9.49187 11.25 8.75019C11.25 7.75563 11.6451 6.8018 12.3483 6.09854C13.0516 5.39528 14.0054 5.00019 15 5.00019ZM20.2625 18.0252C20.0983 17.9907 19.929 17.9889 19.7642 18.0199C19.5993 18.0509 19.4422 18.114 19.3017 18.2057C19.1613 18.2974 19.0403 18.4159 18.9456 18.5543C18.8509 18.6928 18.7845 18.8485 18.75 19.0127C18.7155 19.1768 18.7137 19.3462 18.7447 19.511C18.7757 19.6759 18.8388 19.833 18.9305 19.9735C19.0222 20.1139 19.1407 20.2349 19.2791 20.3296C19.4176 20.4242 19.5733 20.4907 19.7375 20.5252C22.575 21.0877 23.75 22.1002 23.75 22.5002C23.75 23.2252 20.6875 25.0002 15 25.0002C9.3125 25.0002 6.25 23.2252 6.25 22.5002C6.25 22.1002 7.425 21.0877 10.2625 20.4752C10.4267 20.4407 10.5824 20.3743 10.7209 20.2796C10.8593 20.1849 10.9778 20.0639 11.0695 19.9235C11.1612 19.783 11.2243 19.6259 11.2553 19.461C11.2863 19.2962 11.2845 19.1268 11.25 18.9627C11.2155 18.7985 11.1491 18.6428 11.0544 18.5043C10.9597 18.3659 10.8387 18.2474 10.6983 18.1557C10.5578 18.064 10.4007 18.0009 10.2358 17.9699C10.071 17.9389 9.90165 17.9407 9.7375 17.9752C5.9375 18.8502 3.75 20.4877 3.75 22.5002C3.75 25.7877 9.4125 27.5002 15 27.5002C20.5875 27.5002 26.25 25.7877 26.25 22.5002C26.25 20.4877 24.0625 18.8502 20.2625 18.0252Z" fill="white"/>
</svg>
